<?xml version="1.0" encoding="UTF-8"?>
<svg version="1.1" xmlns="http://www.w3.org/2000/svg" width="256" height="256">
<path d="M0 0 C0.83612823 0.00071251 1.67225647 0.00142502 2.53372192 0.00215912 C3.49955704 0.00064346 4.46539215 -0.00087219 5.460495 -0.00243378 C7.08059731 0.00292137 7.08059731 0.00292137 8.73342896 0.0083847 C9.88064926 0.00840988 11.02786957 0.00843506 12.20985413 0.008461 C15.44549732 0.00999126 18.6810903 0.01631849 21.91672134 0.02490044 C24.72093926 0.03161676 27.52515732 0.03472492 30.32938099 0.03802347 C70.66938032 0.0880748 111.0092505 0.34233152 151.34854794 0.56900024 C162.37265773 0.6308796 173.39677853 0.69068374 184.42090034 0.7503767 C206.98602631 0.87260471 229.55113837 0.99724146 252.11624146 1.12361908 C252.90737373 4.6104536 253.24014515 7.82190367 253.23649597 11.39444733 C253.23855797 12.95716873 253.23855797 12.95716873 253.24066162 14.55146027 C253.23706635 15.68362473 253.23347107 16.81578918 253.22976685 17.98226166 C253.22991287 19.18268097 253.2300589 20.38310028 253.23020935 21.61989594 C253.22963293 24.90257014 253.22462485 28.18520146 253.21763539 31.46786714 C253.21137523 34.90183719 253.21079595 38.33580814 253.20960999 41.76978302 C253.20650452 48.2684546 253.19830171 54.76710931 253.1882605 61.26577348 C253.17707499 68.66598812 253.17158277 76.06620358 253.16656506 83.46642458 C253.15611844 98.68549918 253.1385342 113.90455695 253.11624146 129.12361908 C223.96933737 129.14651335 194.82243392 129.16417065 165.67552266 129.17468441 C162.22151745 129.17593487 158.76751226 129.17722921 155.31350708 129.17855072 C154.28221631 129.17894419 154.28221631 129.17894419 153.23009139 129.1793456 C142.14974277 129.18367731 131.06939942 129.19155089 119.98905391 129.20077188 C108.58937283 129.21017832 97.189696 129.21561469 85.79001093 129.21770757 C79.39974101 129.21900312 73.009483 129.2220149 66.61921692 129.22934914 C60.58479382 129.2362178 54.55038733 129.23821436 48.51596069 129.23672676 C46.32006235 129.23699828 44.12416335 129.23893827 41.92826843 129.24282455 C26.96620556 129.26796943 12.06034313 128.86179409 -2.88375854 128.12361908 C-2.90648638 111.58214764 -2.92473767 95.04068342 -2.93557072 78.49919987 C-2.9407337 70.81923181 -2.94777643 63.13927395 -2.959198 55.45931244 C-2.96914478 48.76783919 -2.97561196 42.07637332 -2.97784704 35.38489288 C-2.97915416 31.83966307 -2.98224007 28.2944544 -2.9894886 24.74923134 C-2.99750235 20.79793263 -2.99774969 16.84665488 -2.99728394 12.8953476 C-3.00087921 11.71139908 -3.00447449 10.52745056 -3.00817871 9.30762482 C-3.00680405 8.23765259 -3.00542938 7.16768036 -3.00401306 6.06528473 C-3.00493485 5.12966485 -3.00585665 4.19404497 -3.00680637 3.23007298 C-2.84898828 0.5283875 -2.70374251 0.17742941 0 0 Z " fill="#FFFFFF" transform="translate(2.883758544921875,124.87638092041016)"/>
<path d="M0 0 C21.12 0 42.24 0 64 0 C64 0.33 64 0.66 64 1 C42.88 1 21.76 1 0 1 C0 0.67 0 0.34 0 0 Z " fill="#FFFFFF" transform="translate(191,124)"/>
<path d="M0 0 C21.12 0 42.24 0 64 0 C64 0.33 64 0.66 64 1 C42.88 1 21.76 1 0 1 C0 0.67 0 0.34 0 0 Z " fill="#FFFFFF" transform="translate(1,123)"/>
<path d="M0 0 C21.12 0 42.24 0 64 0 C64 0.33 64 0.66 64 1 C42.88 1 21.76 1 0 1 C0 0.67 0 0.34 0 0 Z " fill="#FFFFFF" transform="translate(191,122)"/>
<path d="M0 0 C21.12 0 42.24 0 64 0 C64 0.33 64 0.66 64 1 C42.88 1 21.76 1 0 1 C0 0.67 0 0.34 0 0 Z " fill="#FFFFFF" transform="translate(1,121)"/>
<path d="M0 0 C21.12 0 42.24 0 64 0 C64 0.33 64 0.66 64 1 C42.88 1 21.76 1 0 1 C0 0.67 0 0.34 0 0 Z " fill="#FFFFFF" transform="translate(191,120)"/>
<path d="M0 0 C21.12 0 42.24 0 64 0 C64 0.33 64 0.66 64 1 C42.88 1 21.76 1 0 1 C0 0.67 0 0.34 0 0 Z " fill="#FFFFFF" transform="translate(1,119)"/>
<path d="M0 0 C21.12 0 42.24 0 64 0 C64 0.33 64 0.66 64 1 C42.88 1 21.76 1 0 1 C0 0.67 0 0.34 0 0 Z " fill="#FFFFFF" transform="translate(191,118)"/>
<path d="M0 0 C21.12 0 42.24 0 64 0 C64 0.33 64 0.66 64 1 C42.88 1 21.76 1 0 1 C0 0.67 0 0.34 0 0 Z " fill="#FFFFFF" transform="translate(1,117)"/>
<path d="M0 0 C21.12 0 42.24 0 64 0 C64 0.33 64 0.66 64 1 C42.88 1 21.76 1 0 1 C0 0.67 0 0.34 0 0 Z " fill="#FFFFFF" transform="translate(191,116)"/>
<path d="M0 0 C21.12 0 42.24 0 64 0 C64 0.33 64 0.66 64 1 C42.88 1 21.76 1 0 1 C0 0.67 0 0.34 0 0 Z " fill="#FFFFFF" transform="translate(1,115)"/>
<path d="M0 0 C21.12 0 42.24 0 64 0 C64 0.33 64 0.66 64 1 C42.88 1 21.76 1 0 1 C0 0.67 0 0.34 0 0 Z " fill="#FFFFFF" transform="translate(191,114)"/>
<path d="M0 0 C21.12 0 42.24 0 64 0 C64 0.33 64 0.66 64 1 C42.88 1 21.76 1 0 1 C0 0.67 0 0.34 0 0 Z " fill="#FFFFFF" transform="translate(1,113)"/>
<path d="M0 0 C21.12 0 42.24 0 64 0 C64 0.33 64 0.66 64 1 C42.88 1 21.76 1 0 1 C0 0.67 0 0.34 0 0 Z " fill="#FFFFFF" transform="translate(191,112)"/>
<path d="M0 0 C21.12 0 42.24 0 64 0 C64 0.33 64 0.66 64 1 C42.88 1 21.76 1 0 1 C0 0.67 0 0.34 0 0 Z " fill="#FFFFFF" transform="translate(1,111)"/>
<path d="M0 0 C21.12 0 42.24 0 64 0 C64 0.33 64 0.66 64 1 C42.88 1 21.76 1 0 1 C0 0.67 0 0.34 0 0 Z " fill="#FFFFFF" transform="translate(191,110)"/>
<path d="M0 0 C21.12 0 42.24 0 64 0 C64 0.33 64 0.66 64 1 C42.88 1 21.76 1 0 1 C0 0.67 0 0.34 0 0 Z " fill="#FFFFFF" transform="translate(1,109)"/>
<path d="M0 0 C21.12 0 42.24 0 64 0 C64 0.33 64 0.66 64 1 C42.88 1 21.76 1 0 1 C0 0.67 0 0.34 0 0 Z " fill="#FFFFFF" transform="translate(191,108)"/>
<path d="M0 0 C21.12 0 42.24 0 64 0 C64 0.33 64 0.66 64 1 C42.88 1 21.76 1 0 1 C0 0.67 0 0.34 0 0 Z " fill="#FFFFFF" transform="translate(1,107)"/>
<path d="M0 0 C21.12 0 42.24 0 64 0 C64 0.33 64 0.66 64 1 C42.88 1 21.76 1 0 1 C0 0.67 0 0.34 0 0 Z " fill="#FFFFFF" transform="translate(191,106)"/>
<path d="M0 0 C21.12 0 42.24 0 64 0 C64 0.33 64 0.66 64 1 C42.88 1 21.76 1 0 1 C0 0.67 0 0.34 0 0 Z " fill="#FFFFFF" transform="translate(1,105)"/>
<path d="M0 0 C21.12 0 42.24 0 64 0 C64 0.33 64 0.66 64 1 C42.88 1 21.76 1 0 1 C0 0.67 0 0.34 0 0 Z " fill="#FFFFFF" transform="translate(191,104)"/>
<path d="M0 0 C21.12 0 42.24 0 64 0 C64 0.33 64 0.66 64 1 C42.88 1 21.76 1 0 1 C0 0.67 0 0.34 0 0 Z " fill="#FFFFFF" transform="translate(1,103)"/>
<path d="M0 0 C21.12 0 42.24 0 64 0 C64 0.33 64 0.66 64 1 C42.88 1 21.76 1 0 1 C0 0.67 0 0.34 0 0 Z " fill="#FFFFFF" transform="translate(191,102)"/>
<path d="M0 0 C21.12 0 42.24 0 64 0 C64 0.33 64 0.66 64 1 C42.88 1 21.76 1 0 1 C0 0.67 0 0.34 0 0 Z " fill="#FFFFFF" transform="translate(1,101)"/>
<path d="M0 0 C21.12 0 42.24 0 64 0 C64 0.33 64 0.66 64 1 C42.88 1 21.76 1 0 1 C0 0.67 0 0.34 0 0 Z " fill="#FFFFFF" transform="translate(191,100)"/>
<path d="M0 0 C21.12 0 42.24 0 64 0 C64 0.33 64 0.66 64 1 C42.88 1 21.76 1 0 1 C0 0.67 0 0.34 0 0 Z " fill="#FFFFFF" transform="translate(1,99)"/>
<path d="M0 0 C21.12 0 42.24 0 64 0 C64 0.33 64 0.66 64 1 C42.88 1 21.76 1 0 1 C0 0.67 0 0.34 0 0 Z " fill="#FFFFFF" transform="translate(191,98)"/>
<path d="M0 0 C21.12 0 42.24 0 64 0 C64 0.33 64 0.66 64 1 C42.88 1 21.76 1 0 1 C0 0.67 0 0.34 0 0 Z " fill="#FFFFFF" transform="translate(1,97)"/>
<path d="M0 0 C21.12 0 42.24 0 64 0 C64 0.33 64 0.66 64 1 C42.88 1 21.76 1 0 1 C0 0.67 0 0.34 0 0 Z " fill="#FFFFFF" transform="translate(191,96)"/>
<path d="M0 0 C21.12 0 42.24 0 64 0 C64 0.33 64 0.66 64 1 C42.88 1 21.76 1 0 1 C0 0.67 0 0.34 0 0 Z " fill="#FFFFFF" transform="translate(1,95)"/>
<path d="M0 0 C21.12 0 42.24 0 64 0 C64 0.33 64 0.66 64 1 C42.88 1 21.76 1 0 1 C0 0.67 0 0.34 0 0 Z " fill="#FFFFFF" transform="translate(191,94)"/>
<path d="M0 0 C21.12 0 42.24 0 64 0 C64 0.33 64 0.66 64 1 C42.88 1 21.76 1 0 1 C0 0.67 0 0.34 0 0 Z " fill="#FFFFFF" transform="translate(1,93)"/>
<path d="M0 0 C21.12 0 42.24 0 64 0 C64 0.33 64 0.66 64 1 C42.88 1 21.76 1 0 1 C0 0.67 0 0.34 0 0 Z " fill="#FFFFFF" transform="translate(191,92)"/>
<path d="M0 0 C21.12 0 42.24 0 64 0 C64 0.33 64 0.66 64 1 C42.88 1 21.76 1 0 1 C0 0.67 0 0.34 0 0 Z " fill="#FFFFFF" transform="translate(1,91)"/>
<path d="M0 0 C21.12 0 42.24 0 64 0 C64 0.33 64 0.66 64 1 C42.88 1 21.76 1 0 1 C0 0.67 0 0.34 0 0 Z " fill="#FFFFFF" transform="translate(191,90)"/>
<path d="M0 0 C21.12 0 42.24 0 64 0 C64 0.33 64 0.66 64 1 C42.88 1 21.76 1 0 1 C0 0.67 0 0.34 0 0 Z " fill="#FFFFFF" transform="translate(1,89)"/>
<path d="M0 0 C21.12 0 42.24 0 64 0 C64 0.33 64 0.66 64 1 C42.88 1 21.76 1 0 1 C0 0.67 0 0.34 0 0 Z " fill="#FFFFFF" transform="translate(191,88)"/>
<path d="M0 0 C21.12 0 42.24 0 64 0 C64 0.33 64 0.66 64 1 C42.88 1 21.76 1 0 1 C0 0.67 0 0.34 0 0 Z " fill="#FFFFFF" transform="translate(1,87)"/>
<path d="M0 0 C21.12 0 42.24 0 64 0 C64 0.33 64 0.66 64 1 C42.88 1 21.76 1 0 1 C0 0.67 0 0.34 0 0 Z " fill="#FFFFFF" transform="translate(191,86)"/>
<path d="M0 0 C21.12 0 42.24 0 64 0 C64 0.33 64 0.66 64 1 C42.88 1 21.76 1 0 1 C0 0.67 0 0.34 0 0 Z " fill="#FFFFFF" transform="translate(1,85)"/>
<path d="M0 0 C21.12 0 42.24 0 64 0 C64 0.33 64 0.66 64 1 C42.88 1 21.76 1 0 1 C0 0.67 0 0.34 0 0 Z " fill="#FFFFFF" transform="translate(191,84)"/>
<path d="M0 0 C21.12 0 42.24 0 64 0 C64 0.33 64 0.66 64 1 C42.88 1 21.76 1 0 1 C0 0.67 0 0.34 0 0 Z " fill="#FFFFFF" transform="translate(1,83)"/>
<path d="M0 0 C21.12 0 42.24 0 64 0 C64 0.33 64 0.66 64 1 C42.88 1 21.76 1 0 1 C0 0.67 0 0.34 0 0 Z " fill="#FFFFFF" transform="translate(191,82)"/>
<path d="M0 0 C21.12 0 42.24 0 64 0 C64 0.33 64 0.66 64 1 C42.88 1 21.76 1 0 1 C0 0.67 0 0.34 0 0 Z " fill="#FFFFFF" transform="translate(1,81)"/>
<path d="M0 0 C21.12 0 42.24 0 64 0 C64 0.33 64 0.66 64 1 C42.88 1 21.76 1 0 1 C0 0.67 0 0.34 0 0 Z " fill="#FFFFFF" transform="translate(191,80)"/>
<path d="M0 0 C21.12 0 42.24 0 64 0 C64 0.33 64 0.66 64 1 C42.88 1 21.76 1 0 1 C0 0.67 0 0.34 0 0 Z " fill="#FFFFFF" transform="translate(1,79)"/>
<path d="M0 0 C21.12 0 42.24 0 64 0 C64 0.33 64 0.66 64 1 C42.88 1 21.76 1 0 1 C0 0.67 0 0.34 0 0 Z " fill="#FFFFFF" transform="translate(191,78)"/>
<path d="M0 0 C21.12 0 42.24 0 64 0 C64 0.33 64 0.66 64 1 C42.88 1 21.76 1 0 1 C0 0.67 0 0.34 0 0 Z " fill="#FFFFFF" transform="translate(1,77)"/>
<path d="M0 0 C21.12 0 42.24 0 64 0 C64 0.33 64 0.66 64 1 C42.88 1 21.76 1 0 1 C0 0.67 0 0.34 0 0 Z " fill="#FFFFFF" transform="translate(191,76)"/>
<path d="M0 0 C21.12 0 42.24 0 64 0 C64 0.33 64 0.66 64 1 C42.88 1 21.76 1 0 1 C0 0.67 0 0.34 0 0 Z " fill="#FFFFFF" transform="translate(1,75)"/>
<path d="M0 0 C21.12 0 42.24 0 64 0 C64 0.33 64 0.66 64 1 C42.88 1 21.76 1 0 1 C0 0.67 0 0.34 0 0 Z " fill="#FFFFFF" transform="translate(191,74)"/>
<path d="M0 0 C21.12 0 42.24 0 64 0 C64 0.33 64 0.66 64 1 C42.88 1 21.76 1 0 1 C0 0.67 0 0.34 0 0 Z " fill="#FFFFFF" transform="translate(1,73)"/>
<path d="M0 0 C21.12 0 42.24 0 64 0 C64 0.33 64 0.66 64 1 C42.88 1 21.76 1 0 1 C0 0.67 0 0.34 0 0 Z " fill="#FFFFFF" transform="translate(191,72)"/>
<path d="M0 0 C21.12 0 42.24 0 64 0 C64 0.33 64 0.66 64 1 C42.88 1 21.76 1 0 1 C0 0.67 0 0.34 0 0 Z " fill="#FFFFFF" transform="translate(1,71)"/>
<path d="M0 0 C21.12 0 42.24 0 64 0 C64 0.33 64 0.66 64 1 C42.88 1 21.76 1 0 1 C0 0.67 0 0.34 0 0 Z " fill="#FFFFFF" transform="translate(191,70)"/>
<path d="M0 0 C21.12 0 42.24 0 64 0 C64 0.33 64 0.66 64 1 C42.88 1 21.76 1 0 1 C0 0.67 0 0.34 0 0 Z " fill="#FFFFFF" transform="translate(1,69)"/>
<path d="M0 0 C21.12 0 42.24 0 64 0 C64 0.33 64 0.66 64 1 C42.88 1 21.76 1 0 1 C0 0.67 0 0.34 0 0 Z " fill="#FFFFFF" transform="translate(191,68)"/>
<path d="M0 0 C21.12 0 42.24 0 64 0 C64 0.33 64 0.66 64 1 C42.88 1 21.76 1 0 1 C0 0.67 0 0.34 0 0 Z " fill="#FFFFFF" transform="translate(1,67)"/>
<path d="M0 0 C21.12 0 42.24 0 64 0 C64 0.33 64 0.66 64 1 C42.88 1 21.76 1 0 1 C0 0.67 0 0.34 0 0 Z " fill="#FFFFFF" transform="translate(191,66)"/>
<path d="M0 0 C21.12 0 42.24 0 64 0 C64 0.33 64 0.66 64 1 C42.88 1 21.76 1 0 1 C0 0.67 0 0.34 0 0 Z " fill="#FFFFFF" transform="translate(1,65)"/>
<path d="M0 0 C21.12 0 42.24 0 64 0 C64 0.33 64 0.66 64 1 C42.88 1 21.76 1 0 1 C0 0.67 0 0.34 0 0 Z " fill="#FFFFFF" transform="translate(191,64)"/>
<path d="M0 0 C21.12 0 42.24 0 64 0 C64 0.33 64 0.66 64 1 C42.88 1 21.76 1 0 1 C0 0.67 0 0.34 0 0 Z " fill="#FFFFFF" transform="translate(1,63)"/>
<path d="M0 0 C21.12 0 42.24 0 64 0 C64 0.33 64 0.66 64 1 C42.88 1 21.76 1 0 1 C0 0.67 0 0.34 0 0 Z " fill="#FFFFFF" transform="translate(191,62)"/>
<path d="M0 0 C21.12 0 42.24 0 64 0 C64 0.33 64 0.66 64 1 C42.88 1 21.76 1 0 1 C0 0.67 0 0.34 0 0 Z " fill="#FFFFFF" transform="translate(1,61)"/>
<path d="M0 0 C21.12 0 42.24 0 64 0 C64 0.33 64 0.66 64 1 C42.88 1 21.76 1 0 1 C0 0.67 0 0.34 0 0 Z " fill="#FFFFFF" transform="translate(191,60)"/>
<path d="M0 0 C21.12 0 42.24 0 64 0 C64 0.33 64 0.66 64 1 C42.88 1 21.76 1 0 1 C0 0.67 0 0.34 0 0 Z " fill="#FFFFFF" transform="translate(1,59)"/>
<path d="M0 0 C21.12 0 42.24 0 64 0 C64 0.33 64 0.66 64 1 C42.88 1 21.76 1 0 1 C0 0.67 0 0.34 0 0 Z " fill="#FFFFFF" transform="translate(191,58)"/>
<path d="M0 0 C21.12 0 42.24 0 64 0 C64 0.33 64 0.66 64 1 C42.88 1 21.76 1 0 1 C0 0.67 0 0.34 0 0 Z " fill="#FFFFFF" transform="translate(1,57)"/>
<path d="M0 0 C21.12 0 42.24 0 64 0 C64 0.33 64 0.66 64 1 C42.88 1 21.76 1 0 1 C0 0.67 0 0.34 0 0 Z " fill="#FFFFFF" transform="translate(191,56)"/>
<path d="M0 0 C21.12 0 42.24 0 64 0 C64 0.33 64 0.66 64 1 C42.88 1 21.76 1 0 1 C0 0.67 0 0.34 0 0 Z " fill="#FFFFFF" transform="translate(1,55)"/>
<path d="M0 0 C21.12 0 42.24 0 64 0 C64 0.33 64 0.66 64 1 C42.88 1 21.76 1 0 1 C0 0.67 0 0.34 0 0 Z " fill="#FFFFFF" transform="translate(191,54)"/>
<path d="M0 0 C21.12 0 42.24 0 64 0 C64 0.33 64 0.66 64 1 C42.88 1 21.76 1 0 1 C0 0.67 0 0.34 0 0 Z " fill="#FFFFFF" transform="translate(1,53)"/>
<path d="M0 0 C21.12 0 42.24 0 64 0 C64 0.33 64 0.66 64 1 C42.88 1 21.76 1 0 1 C0 0.67 0 0.34 0 0 Z " fill="#FFFFFF" transform="translate(191,52)"/>
<path d="M0 0 C21.12 0 42.24 0 64 0 C64 0.33 64 0.66 64 1 C42.88 1 21.76 1 0 1 C0 0.67 0 0.34 0 0 Z " fill="#FFFFFF" transform="translate(1,51)"/>
<path d="M0 0 C21.12 0 42.24 0 64 0 C64 0.33 64 0.66 64 1 C42.88 1 21.76 1 0 1 C0 0.67 0 0.34 0 0 Z " fill="#FFFFFF" transform="translate(191,50)"/>
<path d="M0 0 C21.12 0 42.24 0 64 0 C64 0.33 64 0.66 64 1 C42.88 1 21.76 1 0 1 C0 0.67 0 0.34 0 0 Z " fill="#FFFFFF" transform="translate(1,49)"/>
<path d="M0 0 C21.12 0 42.24 0 64 0 C64 0.33 64 0.66 64 1 C42.88 1 21.76 1 0 1 C0 0.67 0 0.34 0 0 Z " fill="#FFFFFF" transform="translate(191,48)"/>
<path d="M0 0 C21.12 0 42.24 0 64 0 C64 0.33 64 0.66 64 1 C42.88 1 21.76 1 0 1 C0 0.67 0 0.34 0 0 Z " fill="#FFFFFF" transform="translate(1,47)"/>
<path d="M0 0 C21.12 0 42.24 0 64 0 C64 0.33 64 0.66 64 1 C42.88 1 21.76 1 0 1 C0 0.67 0 0.34 0 0 Z " fill="#FFFFFF" transform="translate(191,46)"/>
<path d="M0 0 C21.12 0 42.24 0 64 0 C64 0.33 64 0.66 64 1 C42.88 1 21.76 1 0 1 C0 0.67 0 0.34 0 0 Z " fill="#FFFFFF" transform="translate(1,45)"/>
<path d="M0 0 C21.12 0 42.24 0 64 0 C64 0.33 64 0.66 64 1 C42.88 1 21.76 1 0 1 C0 0.67 0 0.34 0 0 Z " fill="#FFFFFF" transform="translate(191,44)"/>
<path d="M0 0 C21.12 0 42.24 0 64 0 C64 0.33 64 0.66 64 1 C42.88 1 21.76 1 0 1 C0 0.67 0 0.34 0 0 Z " fill="#FFFFFF" transform="translate(1,43)"/>
<path d="M0 0 C21.12 0 42.24 0 64 0 C64 0.33 64 0.66 64 1 C42.88 1 21.76 1 0 1 C0 0.67 0 0.34 0 0 Z " fill="#FFFFFF" transform="translate(191,42)"/>
<path d="M0 0 C21.12 0 42.24 0 64 0 C64 0.33 64 0.66 64 1 C42.88 1 21.76 1 0 1 C0 0.67 0 0.34 0 0 Z " fill="#FFFFFF" transform="translate(1,41)"/>
<path d="M0 0 C21.12 0 42.24 0 64 0 C64 0.33 64 0.66 64 1 C42.88 1 21.76 1 0 1 C0 0.67 0 0.34 0 0 Z " fill="#FFFFFF" transform="translate(191,40)"/>
<path d="M0 0 C21.12 0 42.24 0 64 0 C64 0.33 64 0.66 64 1 C42.88 1 21.76 1 0 1 C0 0.67 0 0.34 0 0 Z " fill="#FFFFFF" transform="translate(1,39)"/>
<path d="M0 0 C21.12 0 42.24 0 64 0 C64 0.33 64 0.66 64 1 C42.88 1 21.76 1 0 1 C0 0.67 0 0.34 0 0 Z " fill="#FFFFFF" transform="translate(191,38)"/>
<path d="M0 0 C21.12 0 42.24 0 64 0 C64 0.33 64 0.66 64 1 C42.88 1 21.76 1 0 1 C0 0.67 0 0.34 0 0 Z " fill="#FFFFFF" transform="translate(1,37)"/>
<path d="M0 0 C21.12 0 42.24 0 64 0 C64 0.33 64 0.66 64 1 C42.88 1 21.76 1 0 1 C0 0.67 0 0.34 0 0 Z " fill="#FFFFFF" transform="translate(191,36)"/>
<path d="M0 0 C21.12 0 42.24 0 64 0 C64 0.33 64 0.66 64 1 C42.88 1 21.76 1 0 1 C0 0.67 0 0.34 0 0 Z " fill="#FFFFFF" transform="translate(1,35)"/>
<path d="M0 0 C21.12 0 42.24 0 64 0 C64 0.33 64 0.66 64 1 C42.88 1 21.76 1 0 1 C0 0.67 0 0.34 0 0 Z " fill="#FFFFFF" transform="translate(191,34)"/>
<path d="M0 0 C21.12 0 42.24 0 64 0 C64 0.33 64 0.66 64 1 C42.88 1 21.76 1 0 1 C0 0.67 0 0.34 0 0 Z " fill="#FFFFFF" transform="translate(1,33)"/>
<path d="M0 0 C21.12 0 42.24 0 64 0 C64 0.33 64 0.66 64 1 C42.88 1 21.76 1 0 1 C0 0.67 0 0.34 0 0 Z " fill="#FFFFFF" transform="translate(191,32)"/>
<path d="M0 0 C21.12 0 42.24 0 64 0 C64 0.33 64 0.66 64 1 C42.88 1 21.76 1 0 1 C0 0.67 0 0.34 0 0 Z " fill="#FFFFFF" transform="translate(1,31)"/>
<path d="M0 0 C21.12 0 42.24 0 64 0 C64 0.33 64 0.66 64 1 C42.88 1 21.76 1 0 1 C0 0.67 0 0.34 0 0 Z " fill="#FFFFFF" transform="translate(191,30)"/>
<path d="M0 0 C21.12 0 42.24 0 64 0 C64 0.33 64 0.66 64 1 C42.88 1 21.76 1 0 1 C0 0.67 0 0.34 0 0 Z " fill="#FFFFFF" transform="translate(1,29)"/>
<path d="M0 0 C21.12 0 42.24 0 64 0 C64 0.33 64 0.66 64 1 C42.88 1 21.76 1 0 1 C0 0.67 0 0.34 0 0 Z " fill="#FFFFFF" transform="translate(191,28)"/>
<path d="M0 0 C21.12 0 42.24 0 64 0 C64 0.33 64 0.66 64 1 C42.88 1 21.76 1 0 1 C0 0.67 0 0.34 0 0 Z " fill="#FFFFFF" transform="translate(1,27)"/>
<path d="M0 0 C21.12 0 42.24 0 64 0 C64 0.33 64 0.66 64 1 C42.88 1 21.76 1 0 1 C0 0.67 0 0.34 0 0 Z " fill="#FFFFFF" transform="translate(191,26)"/>
<path d="M0 0 C21.12 0 42.24 0 64 0 C64 0.33 64 0.66 64 1 C42.88 1 21.76 1 0 1 C0 0.67 0 0.34 0 0 Z " fill="#FFFFFF" transform="translate(1,25)"/>
<path d="M0 0 C21.12 0 42.24 0 64 0 C64 0.33 64 0.66 64 1 C42.88 1 21.76 1 0 1 C0 0.67 0 0.34 0 0 Z " fill="#FFFFFF" transform="translate(191,24)"/>
<path d="M0 0 C21.12 0 42.24 0 64 0 C64 0.33 64 0.66 64 1 C42.88 1 21.76 1 0 1 C0 0.67 0 0.34 0 0 Z " fill="#FFFFFF" transform="translate(1,23)"/>
<path d="M0 0 C21.12 0 42.24 0 64 0 C64 0.33 64 0.66 64 1 C42.88 1 21.76 1 0 1 C0 0.67 0 0.34 0 0 Z " fill="#FFFFFF" transform="translate(191,22)"/>
<path d="M0 0 C21.12 0 42.24 0 64 0 C64 0.33 64 0.66 64 1 C42.88 1 21.76 1 0 1 C0 0.67 0 0.34 0 0 Z " fill="#FFFFFF" transform="translate(1,21)"/>
<path d="M0 0 C21.12 0 42.24 0 64 0 C64 0.33 64 0.66 64 1 C42.88 1 21.76 1 0 1 C0 0.67 0 0.34 0 0 Z " fill="#FFFFFF" transform="translate(191,20)"/>
<path d="M0 0 C21.12 0 42.24 0 64 0 C64 0.33 64 0.66 64 1 C42.88 1 21.76 1 0 1 C0 0.67 0 0.34 0 0 Z " fill="#FFFFFF" transform="translate(1,19)"/>
<path d="M0 0 C21.12 0 42.24 0 64 0 C64 0.33 64 0.66 64 1 C42.88 1 21.76 1 0 1 C0 0.67 0 0.34 0 0 Z " fill="#FFFFFF" transform="translate(191,18)"/>
<path d="M0 0 C21.12 0 42.24 0 64 0 C64 0.33 64 0.66 64 1 C42.88 1 21.76 1 0 1 C0 0.67 0 0.34 0 0 Z " fill="#FFFFFF" transform="translate(1,17)"/>
<path d="M0 0 C21.12 0 42.24 0 64 0 C64 0.33 64 0.66 64 1 C42.88 1 21.76 1 0 1 C0 0.67 0 0.34 0 0 Z " fill="#FFFFFF" transform="translate(191,16)"/>
<path d="M0 0 C21.12 0 42.24 0 64 0 C64 0.33 64 0.66 64 1 C42.88 1 21.76 1 0 1 C0 0.67 0 0.34 0 0 Z " fill="#FFFFFF" transform="translate(1,15)"/>
<path d="M0 0 C21.12 0 42.24 0 64 0 C64 0.33 64 0.66 64 1 C42.88 1 21.76 1 0 1 C0 0.67 0 0.34 0 0 Z " fill="#FFFFFF" transform="translate(191,14)"/>
<path d="M0 0 C21.12 0 42.24 0 64 0 C64 0.33 64 0.66 64 1 C42.88 1 21.76 1 0 1 C0 0.67 0 0.34 0 0 Z " fill="#FFFFFF" transform="translate(1,13)"/>
<path d="M0 0 C21.12 0 42.24 0 64 0 C64 0.33 64 0.66 64 1 C42.88 1 21.76 1 0 1 C0 0.67 0 0.34 0 0 Z " fill="#FFFFFF" transform="translate(191,12)"/>
<path d="M0 0 C21.12 0 42.24 0 64 0 C64 0.33 64 0.66 64 1 C42.88 1 21.76 1 0 1 C0 0.67 0 0.34 0 0 Z " fill="#FFFFFF" transform="translate(1,11)"/>
<path d="M0 0 C21.12 0 42.24 0 64 0 C64 0.33 64 0.66 64 1 C42.88 1 21.76 1 0 1 C0 0.67 0 0.34 0 0 Z " fill="#FFFFFF" transform="translate(191,10)"/>
<path d="M0 0 C21.12 0 42.24 0 64 0 C64 0.33 64 0.66 64 1 C42.88 1 21.76 1 0 1 C0 0.67 0 0.34 0 0 Z " fill="#FFFFFF" transform="translate(1,9)"/>
<path d="M0 0 C21.12 0 42.24 0 64 0 C64 0.33 64 0.66 64 1 C42.88 1 21.76 1 0 1 C0 0.67 0 0.34 0 0 Z " fill="#FFFFFF" transform="translate(191,8)"/>
<path d="M0 0 C21.12 0 42.24 0 64 0 C64 0.33 64 0.66 64 1 C42.88 1 21.76 1 0 1 C0 0.67 0 0.34 0 0 Z " fill="#FFFFFF" transform="translate(1,7)"/>
<path d="M0 0 C21.12 0 42.24 0 64 0 C64 0.33 64 0.66 64 1 C42.88 1 21.76 1 0 1 C0 0.67 0 0.34 0 0 Z " fill="#FFFFFF" transform="translate(191,6)"/>
<path d="M0 0 C21.12 0 42.24 0 64 0 C64 0.33 64 0.66 64 1 C42.88 1 21.76 1 0 1 C0 0.67 0 0.34 0 0 Z " fill="#FFFFFF" transform="translate(1,5)"/>
<path d="M0 0 C21.12 0 42.24 0 64 0 C64 0.33 64 0.66 64 1 C42.88 1 21.76 1 0 1 C0 0.67 0 0.34 0 0 Z " fill="#FFFFFF" transform="translate(191,4)"/>
<path d="M0 0 C21.12 0 42.24 0 64 0 C64 0.33 64 0.66 64 1 C42.88 1 21.76 1 0 1 C0 0.67 0 0.34 0 0 Z " fill="#FFFFFF" transform="translate(1,3)"/>
<path d="M0 0 C21.12 0 42.24 0 64 0 C64 0.33 64 0.66 64 1 C42.88 1 21.76 1 0 1 C0 0.67 0 0.34 0 0 Z " fill="#FFFFFF" transform="translate(191,2)"/>
<path d="M0 0 C21.12 0 42.24 0 64 0 C64 0.33 64 0.66 64 1 C42.88 1 21.76 1 0 1 C0 0.67 0 0.34 0 0 Z " fill="#FFFFFF" transform="translate(1,1)"/>
<path d="M0 0 C21.12 0 42.24 0 64 0 C64 0.33 64 0.66 64 1 C42.88 1 21.76 1 0 1 C0 0.67 0 0.34 0 0 Z " fill="#FFFFFF" transform="translate(191,0)"/>
</svg>
