<?xml version="1.0"?>
<svg xmlns="http://www.w3.org/2000/svg" width="50" height="50" viewBox="0 0 50 50">
    <path d="M 25 0 C 24.860125 9.2518585e-18 24.72425 0.03525 24.59375 0.09375 L 0.59375 10.875 C 0.23475 11.037 0 11.4185 0 11.8125 L 0 16.3125 C -7.4014868e-17 16.6525 0.18275 16.942 0.46875 17.125 C 0.75475 17.309 1.09725 17.35875 1.40625 17.21875 L 25 6.5 L 48.59375 17.21875 C 48.72575 17.27775 48.859 17.3125 49 17.3125 C 49.189 17.3125 49.36725 17.26125 49.53125 17.15625 C 49.81625 16.97225 50 16.6525 50 16.3125 L 50 11.8125 C 50 11.4185 49.76625 11.036 49.40625 10.875 L 25.40625 0.09375 C 25.27625 0.03525 25.139875 -9.2518585e-18 25 0 z M 25 8.6875 L 2.25 19.03125 C 2.172 19.06625 2.079 19.096 2 19.125 L 2 49 C 2 49.553 2.448 50 3 50 L 47 50 C 47.553 50 48 49.553 48 49 L 48 19.125 C 47.92 19.097 47.828 19.06625 47.75 19.03125 L 25 8.6875 z M 33.09375 17.96875 C 33.114656 17.96875 33.135416 17.968478 33.15625 17.96875 C 33.34542 17.971218 33.53671 18.006331 33.71875 18.03125 C 33.866631 18.051493 34.014318 18.058641 34.15625 18.09375 C 34.18867 18.101973 34.217931 18.115997 34.25 18.125 C 34.364877 18.156478 34.483701 18.177291 34.59375 18.21875 C 34.602988 18.222298 34.615799 18.215131 34.625 18.21875 C 34.647854 18.227568 34.664874 18.240748 34.6875 18.25 C 34.825537 18.307251 34.965039 18.395215 35.09375 18.46875 C 35.135714 18.493001 35.177878 18.505253 35.21875 18.53125 C 35.43128 18.66419 35.632692 18.820192 35.8125 19 C 37.5125 20.8 37.1125 24.0125 34.8125 26.3125 C 34.639 26.486125 34.462256 26.629342 34.28125 26.78125 C 34.213256 26.838373 34.131397 26.88344 34.0625 26.9375 C 33.818553 27.128913 33.596473 27.315739 33.34375 27.46875 C 33.336538 27.473117 33.319718 27.464415 33.3125 27.46875 C 33.259981 27.500395 33.209041 27.532514 33.15625 27.5625 C 32.777583 27.777026 32.385146 27.964435 32 28.09375 C 31.906465 28.125155 31.812188 28.161121 31.71875 28.1875 C 31.618201 28.215803 31.506456 28.227522 31.40625 28.25 C 31.376792 28.256604 31.341915 28.243899 31.3125 28.25 C 31.069634 28.300139 30.831812 28.327926 30.59375 28.34375 C 30.474731 28.351777 30.367197 28.375542 30.25 28.375 C 29.954062 28.375 29.685665 28.366999 29.40625 28.3125 C 29.164623 28.265625 28.9125 28.18125 28.6875 28.09375 L 26.84375 29.9375 L 22.84375 33.9375 L 14.8125 42 C 14.7125 41.9 13.10625 40.19375 12.90625 40.09375 L 20.96875 31.96875 L 25 27.90625 L 26.6875 26.1875 C 25.9875 24.3875 26.7 21.89375 28.5 20.09375 C 28.672273 19.913987 28.84885 19.75103 29.03125 19.59375 C 29.14102 19.498853 29.230936 19.399221 29.34375 19.3125 C 29.361053 19.299167 29.388881 19.29439 29.40625 19.28125 C 29.412755 19.276346 29.430986 19.286127 29.4375 19.28125 C 29.674667 19.103218 29.909382 18.954601 30.15625 18.8125 C 30.188536 18.793881 30.21759 18.768003 30.25 18.75 C 30.332202 18.704433 30.417113 18.666599 30.5 18.625 C 30.788678 18.480118 31.082359 18.346582 31.375 18.25 C 31.62085 18.169406 31.880773 18.108829 32.125 18.0625 C 32.256388 18.037576 32.369969 18.014973 32.5 18 C 32.695047 17.977541 32.9035 17.96875 33.09375 17.96875 z M 15 18.09375 L 15.1875 18.09375 L 23.59375 26.5 L 19.5625 30.5625 L 15.09375 26.09375 C 12.79375 23.89375 12.8 20.29375 15 18.09375 z M 28.25 31.375 L 37 40.09375 C 36.8 40.09375 35.19375 41.9 35.09375 42 L 28 34.90625 L 25.90625 37 L 24.25 35.375 L 28.25 31.375 z"/>
</svg>
