<?xml version="1.0" encoding="iso-8859-1"?>
<!-- Generator: Adobe Illustrator 19.0.0, SVG Export Plug-In . SVG Version: 6.00 Build 0)  -->
<svg version="1.1" id="Layer_1" xmlns="http://www.w3.org/2000/svg" xmlns:xlink="http://www.w3.org/1999/xlink" x="0px" y="0px"
	 viewBox="0 0 512 512" style="enable-background:new 0 0 512 512;" xml:space="preserve">
<g>
	<g>
		<path d="M256,0C114.51,0,0,114.497,0,256c0,141.49,114.497,256,256,256c141.49,0,256-114.497,256-256C512,114.51,397.503,0,256,0z
			 M256,477.867c-122.337,0-221.867-99.529-221.867-221.867S133.663,34.133,256,34.133S477.867,133.663,477.867,256
			S378.337,477.867,256,477.867z"/>
	</g>
</g>
<g>
	<g>
		<path d="M256,122.03c-24.087,0-43.683,19.597-43.683,43.684s19.596,43.682,43.683,43.682s43.683-19.596,43.683-43.683
			C299.683,141.626,280.087,122.03,256,122.03z M256,175.262c-5.266,0-9.549-4.284-9.549-9.549c0-5.266,4.284-9.55,9.549-9.55
			s9.549,4.285,9.549,9.55S261.266,175.262,256,175.262z"/>
	</g>
</g>
<g>
	<g>
		<path d="M256,227.154c-9.425,0-17.067,7.641-17.067,17.067v128.683c0,9.425,7.641,17.067,17.067,17.067
			s17.067-7.641,17.067-17.067V244.221C273.067,234.795,265.425,227.154,256,227.154z"/>
	</g>
</g>
<g>
</g>
<g>
</g>
<g>
</g>
<g>
</g>
<g>
</g>
<g>
</g>
<g>
</g>
<g>
</g>
<g>
</g>
<g>
</g>
<g>
</g>
<g>
</g>
<g>
</g>
<g>
</g>
<g>
</g>
</svg>
